<svg aria-hidden="true" style="position: absolute; width: 0; height: 0; overflow: hidden;" version="1.1" xmlns="http://www.w3.org/2000/svg" xmlns:xlink="http://www.w3.org/1999/xlink">
<defs>
<symbol id="icon-navigation-arrow-svgrepo-com" viewBox="0 0 32 32">
<path d="M1.317 31.43c0.272 0.748 1.429 0.748 1.633 0.068v0c1.497 0.544 4.558-3.061 5.511-3.878 1.701-1.429 3.402-2.789 5.239-4.014 1.769-1.156 2.449-1.361 4.15-0.068 2.994 2.381 5.647 5.239 8.98 7.143 0.748 0.408 4.49 1.497 3.742-0.612 0 0 0 0 0-0.068 0.272-0.136 0.408-0.408 0.272-0.816-4.694-9.525-8.912-19.389-14.151-28.71-0.272-0.476-1.089-0.68-1.429-0.204-4.354 5.511-6.055 12.314-9.184 18.505-1.633 3.198-5.987 8.844-4.762 12.654zM18.053 19.184c0.068-0.068 0.068-0.068 0.136-0.136v0c0.068 0.068 0.136 0.136 0.204 0.204 0.136 0.204 0.204 0.34 0.34 0.544-0.204-0.136-0.34-0.272-0.544-0.408-0.068-0.136-0.068-0.204-0.136-0.204z"></path>
</symbol>
</defs>
</svg>
